<svg width="22" height="13" viewBox="0 0 22 13" fill="none" xmlns="http://www.w3.org/2000/svg">
<path fill-rule="evenodd" clip-rule="evenodd" d="M10.7423 0.0847168C5.88453 0.0847168 1.73597 2.60267 0.0551758 6.15696C1.73597 9.71125 5.88453 12.2292 10.7423 12.2292C15.6001 12.2292 19.7487 9.71125 21.4295 6.15696C19.7487 2.60267 15.6001 0.0847168 10.7423 0.0847168ZM10.7423 10.2051C8.06085 10.2051 5.88455 8.39154 5.88455 6.15696C5.88455 3.92237 8.06085 2.10879 10.7423 2.10879C13.4239 2.10879 15.6001 3.92237 15.6001 6.15696C15.6001 8.39154 13.4239 10.2051 10.7423 10.2051ZM10.7424 3.7281C9.12966 3.7281 7.82777 4.81301 7.82777 6.157C7.82777 7.50099 9.12966 8.5859 10.7424 8.5859C12.3552 8.5859 13.6571 7.50099 13.6571 6.157C13.6571 4.81301 12.3552 3.7281 10.7424 3.7281Z" fill="#EC3237"/>
</svg>
