<svg width="16" height="16" viewBox="0 0 16 16" fill="none" xmlns="http://www.w3.org/2000/svg">
<path d="M8.23957 0.541748C9.19647 0.541748 10.144 0.730224 11.0281 1.09641C11.9121 1.4626 12.7154 1.99934 13.392 2.67597C14.0687 3.3526 14.6054 4.15588 14.9716 5.03994C15.3378 5.92401 15.5263 6.87154 15.5263 7.82844C15.5263 8.78534 15.3378 9.73287 14.9716 10.6169C14.6054 11.501 14.0687 12.3043 13.392 12.9809C12.7154 13.6575 11.9121 14.1943 11.0281 14.5605C10.144 14.9267 9.19647 15.1151 8.23957 15.1151C6.30702 15.1151 4.45362 14.3474 3.0871 12.9809C1.72058 11.6144 0.952881 9.76099 0.952881 7.82844C0.952881 5.89589 1.72058 4.04249 3.0871 2.67597C4.45362 1.30945 6.30702 0.541748 8.23957 0.541748ZM8.23957 10.2573C7.998 10.2573 7.76633 10.3533 7.59551 10.5241C7.4247 10.6949 7.32874 10.9266 7.32874 11.1682C7.32874 11.4097 7.4247 11.6414 7.59551 11.8122C7.76633 11.983 7.998 12.079 8.23957 12.079C8.48114 12.079 8.71282 11.983 8.88363 11.8122C9.05445 11.6414 9.15041 11.4097 9.15041 11.1682C9.15041 10.9266 9.05445 10.6949 8.88363 10.5241C8.71282 10.3533 8.48114 10.2573 8.23957 10.2573ZM8.23957 3.57787C8.09745 3.57782 7.95982 3.62763 7.85063 3.71861C7.74145 3.8096 7.66765 3.93599 7.64206 4.07579L7.63235 4.18509V8.43566L7.64206 8.54496C7.66741 8.68497 7.74112 8.81163 7.85032 8.90283C7.95953 8.99404 8.09729 9.044 8.23957 9.044C8.38185 9.044 8.51962 8.99404 8.62882 8.90283C8.73802 8.81163 8.81173 8.68497 8.83708 8.54496L8.8468 8.43566V4.18509L8.83708 4.07579C8.8115 3.93599 8.73769 3.8096 8.62851 3.71861C8.51933 3.62763 8.38169 3.57782 8.23957 3.57787Z" fill="#EC3237"/>
</svg>
