<svg width="25" height="26" viewBox="0 0 25 26" fill="none" xmlns="http://www.w3.org/2000/svg">
<path d="M22.0399 8.23389C21.9458 8.13905 21.8339 8.06377 21.7106 8.01239C21.5873 7.96102 21.455 7.93457 21.3214 7.93457C21.1878 7.93457 21.0556 7.96102 20.9323 8.01239C20.8089 8.06377 20.697 8.13905 20.603 8.23389L14.2381 14.6089L9.89701 10.2577C9.80294 10.1629 9.69102 10.0876 9.56771 10.0362C9.4444 9.98483 9.31214 9.95838 9.17856 9.95838C9.04497 9.95838 8.91271 9.98483 8.7894 10.0362C8.66609 10.0876 8.55417 10.1629 8.4601 10.2577L2.38868 16.3291C2.29383 16.4232 2.21855 16.5351 2.16718 16.6584C2.1158 16.7817 2.08936 16.914 2.08936 17.0476C2.08936 17.1812 2.1158 17.3134 2.16718 17.4367C2.21855 17.56 2.29383 17.672 2.38868 17.766C2.48274 17.8609 2.59466 17.9362 2.71797 17.9875C2.84128 18.0389 2.97354 18.0654 3.10713 18.0654C3.24071 18.0654 3.37297 18.0389 3.49628 17.9875C3.61959 17.9362 3.73151 17.8609 3.82558 17.766L9.17856 12.4029L13.5196 16.7541C13.6137 16.849 13.7256 16.9243 13.8489 16.9756C13.9722 17.027 14.1045 17.0534 14.2381 17.0534C14.3717 17.0534 14.5039 17.027 14.6272 16.9756C14.7505 16.9243 14.8625 16.849 14.9565 16.7541L22.0399 9.67079C22.1347 9.57673 22.21 9.46481 22.2614 9.3415C22.3127 9.21819 22.3392 9.08593 22.3392 8.95234C22.3392 8.81876 22.3127 8.6865 22.2614 8.56319C22.21 8.43988 22.1347 8.32796 22.0399 8.23389Z" fill="#EC3237"/>
</svg>
