<svg width="15" height="15" viewBox="0 0 15 15" fill="none" xmlns="http://www.w3.org/2000/svg">
<path d="M7.50252 4.25128e-07C6.20133 -0.000437625 4.92242 0.337655 3.79144 0.981059C2.66045 1.62446 1.71632 2.55104 1.05181 3.66975C0.387291 4.78845 0.0252558 6.0608 0.00127421 7.36176C-0.0227074 8.66273 0.29219 9.94755 0.915024 11.09L0.0275251 14.2025C-0.00370327 14.3118 -0.00453523 14.4275 0.0251189 14.5372C0.054773 14.647 0.11379 14.7465 0.195819 14.8252C0.277848 14.9039 0.379782 14.9587 0.49065 14.9838C0.601519 15.0089 0.717124 15.0032 0.825024 14.9675L3.74752 13.9937C4.74359 14.5693 5.85873 14.9081 7.00666 14.9837C8.15459 15.0594 9.30454 14.87 10.3676 14.4301C11.4306 13.9903 12.3782 13.3118 13.137 12.4471C13.8958 11.5825 14.4456 10.5548 14.7437 9.44373C15.0419 8.33262 15.0804 7.16781 14.8564 6.03941C14.6324 4.91102 14.1518 3.84928 13.4517 2.93635C12.7517 2.02342 11.8511 1.28375 10.8195 0.774583C9.78785 0.265414 8.65294 0.000384936 7.50252 4.25128e-07ZM5.00252 6.24999C5.00252 6.08423 5.06837 5.92526 5.18558 5.80805C5.30279 5.69084 5.46176 5.62499 5.62752 5.62499H9.37751C9.54327 5.62499 9.70225 5.69084 9.81946 5.80805C9.93667 5.92526 10.0025 6.08423 10.0025 6.24999C10.0025 6.41575 9.93667 6.57472 9.81946 6.69193C9.70225 6.80914 9.54327 6.87499 9.37751 6.87499H5.62752C5.46176 6.87499 5.30279 6.80914 5.18558 6.69193C5.06837 6.57472 5.00252 6.41575 5.00252 6.24999ZM5.62752 8.12499H8.12752C8.29328 8.12499 8.45225 8.19084 8.56946 8.30805C8.68667 8.42526 8.75252 8.58423 8.75252 8.74999C8.75252 8.91575 8.68667 9.07472 8.56946 9.19193C8.45225 9.30914 8.29328 9.37499 8.12752 9.37499H5.62752C5.46176 9.37499 5.30279 9.30914 5.18558 9.19193C5.06837 9.07472 5.00252 8.91575 5.00252 8.74999C5.00252 8.58423 5.06837 8.42526 5.18558 8.30805C5.30279 8.19084 5.46176 8.12499 5.62752 8.12499Z" fill="#EC3237"/>
</svg>
