<svg width="28" height="29" viewBox="0 0 28 29" fill="none" xmlns="http://www.w3.org/2000/svg">
<path d="M27.9373 2.05098C28.001 1.89197 28.0166 1.71777 27.9822 1.54999C27.9477 1.38221 27.8648 1.22822 27.7437 1.10711C27.6226 0.985999 27.4686 0.903096 27.3009 0.868679C27.1331 0.834261 26.9589 0.849842 26.7999 0.91349L1.34352 11.0966H1.34177L0.550793 11.4116C0.400981 11.4714 0.270602 11.5714 0.174058 11.7006C0.0775145 11.8298 0.0185629 11.9832 0.0037155 12.1438C-0.0111319 12.3044 0.0187027 12.466 0.0899237 12.6107C0.161145 12.7554 0.27098 12.8776 0.407298 12.9638L1.12477 13.4188L1.12652 13.4223L9.86747 18.9838L15.4288 27.7249L15.4323 27.7284L15.8873 28.4459C15.9737 28.5817 16.096 28.691 16.2406 28.7618C16.3852 28.8325 16.5466 28.862 16.7069 28.847C16.8672 28.832 17.0202 28.773 17.1491 28.6766C17.2781 28.5802 17.3779 28.4501 17.4377 28.3006L27.9373 2.05098ZM24.7297 5.35843L11.6157 18.4728L11.2394 17.8813C11.1705 17.7727 11.0785 17.6807 10.9699 17.6118L10.3785 17.2355L23.4925 4.1212L25.5539 3.29696L24.7297 5.35843Z" fill="white"/>
</svg>
