<svg width="12" height="10" viewBox="0 0 12 10" fill="none" xmlns="http://www.w3.org/2000/svg">
<path d="M11.0785 2.13786L4.24055 9.33638C4.181 9.3993 4.11023 9.44922 4.03231 9.48328C3.95439 9.51734 3.87085 9.53487 3.78647 9.53487C3.7021 9.53487 3.61856 9.51734 3.54064 9.48328C3.46272 9.44922 3.39195 9.3993 3.33239 9.33638L0.340797 6.18703C0.281166 6.12425 0.233864 6.04973 0.201592 5.96771C0.16932 5.88569 0.15271 5.79778 0.15271 5.709C0.15271 5.62022 0.16932 5.53231 0.201592 5.45029C0.233864 5.36827 0.281166 5.29375 0.340797 5.23097C0.400427 5.1682 0.471219 5.1184 0.549131 5.08443C0.627042 5.05045 0.710547 5.03297 0.794878 5.03297C0.879209 5.03297 0.962714 5.05045 1.04063 5.08443C1.11854 5.1184 1.18933 5.1682 1.24896 5.23097L3.78701 7.90286L10.1714 1.18293C10.2918 1.05615 10.4552 0.984924 10.6255 0.984924C10.7958 0.984924 10.9591 1.05615 11.0796 1.18293C11.2 1.30971 11.2676 1.48166 11.2676 1.66096C11.2676 1.84025 11.2 2.0122 11.0796 2.13898L11.0785 2.13786Z" fill="white"/>
</svg>
