<svg width="30" height="14" viewBox="0 0 30 14" fill="none" xmlns="http://www.w3.org/2000/svg">
<g clip-path="url(#clip0_7_272)">
<path d="M0.65387 0.25415H29.412V13.3755H0.65387V0.25415Z" fill="white"/>
<path d="M0.65387 0.25415H29.412V1.26351H0.65387V0.25415ZM0.65387 2.27286H29.412V3.28222H0.65387V2.27286ZM0.65387 4.29149H29.412V5.30085H0.65387V4.29149ZM0.65387 6.3102H29.412V7.31956H0.65387V6.3102ZM0.65387 8.32883H29.412V9.33818H0.65387V8.32883ZM0.65387 10.3475H29.412V11.3569H0.65387V10.3475ZM0.65387 12.3662H29.412V13.3755H0.65387V12.3662Z" fill="#B22234"/>
<path d="M0.65387 0.25415H12.1571V7.31947H0.65387V0.25415Z" fill="#3C3B6E"/>
<path d="M1.1946 0.827806L1.46866 1.00041L1.36398 1.27971L1.63795 1.10711L1.91202 1.27971L1.80734 1.00041L2.0813 0.827806H1.74263L1.63795 0.548584L1.53327 0.827806H1.1946ZM3.10174 0.827806L3.37571 1.00041L3.27103 1.27971L3.54509 1.10711L3.81916 1.27971L3.71448 1.00041L3.98845 0.827806H3.64977L3.54509 0.548584L3.44041 0.827806H3.10174ZM5.00888 0.827806L5.28285 1.00041L5.17817 1.27971L5.45224 1.10711L5.72621 1.27971L5.62153 1.00041L5.89559 0.827806H5.55692L5.45224 0.548584L5.34756 0.827806H5.00888ZM6.91603 0.827806L7.19 1.00041L7.08532 1.27971L7.35938 1.10711L7.63335 1.27971L7.52867 1.00041L7.80274 0.827806H7.46397L7.35938 0.548584L7.2547 0.827806H6.91603ZM8.82308 0.827806L9.09714 1.00041L8.99246 1.27971L9.26643 1.10711L9.5405 1.27971L9.43582 1.00041L9.70979 0.827806H9.37111L9.26643 0.548584L9.16175 0.827806H8.82308ZM10.7302 0.827806L11.0042 1.00041L10.8995 1.27971L11.1736 1.10711L11.4475 1.27971L11.3429 1.00041L11.6169 0.827806H11.2783L11.1736 0.548584L11.0689 0.827806H10.7302ZM2.14812 1.53642L2.42218 1.70902L2.3175 1.98824L2.59157 1.81564L2.86554 1.98824L2.76086 1.70902L3.03492 1.53642H2.69615L2.59157 1.25711L2.48689 1.53642H2.14812ZM4.05526 1.53642L4.32933 1.70902L4.22465 1.98824L4.49862 1.81564L4.77268 1.98824L4.668 1.70902L4.94197 1.53642H4.6033L4.49862 1.25711L4.39394 1.53642H4.05526ZM5.96241 1.53642L6.23647 1.70902L6.13179 1.98824L6.40576 1.81564L6.67983 1.98824L6.57515 1.70902L6.84912 1.53642H6.51044L6.40576 1.25711L6.30108 1.53642H5.96241ZM7.86955 1.53642L8.14352 1.70902L8.03884 1.98824L8.31291 1.81564L8.58688 1.98824L8.4822 1.70902L8.75626 1.53642H8.41759L8.31291 1.25711L8.20823 1.53642H7.86955ZM9.7766 1.53642L10.0507 1.70902L9.94599 1.98824L10.22 1.81564L10.494 1.98824L10.3893 1.70902L10.6633 1.53642H10.3246L10.22 1.25711L10.1154 1.53642H9.7766ZM1.1946 2.24494L1.46866 2.41755L1.36398 2.69685L1.63795 2.52425L1.91202 2.69685L1.80734 2.41755L2.0813 2.24494H1.74263L1.63795 1.96572L1.53327 2.24494H1.1946ZM3.10174 2.24494L3.37571 2.41755L3.27103 2.69685L3.54509 2.52425L3.81916 2.69685L3.71448 2.41755L3.98845 2.24494H3.64977L3.54509 1.96572L3.44041 2.24494H3.10174ZM5.00888 2.24494L5.28285 2.41755L5.17817 2.69685L5.45224 2.52425L5.72621 2.69685L5.62153 2.41755L5.89559 2.24494H5.55692L5.45224 1.96572L5.34756 2.24494H5.00888ZM6.91603 2.24494L7.19 2.41755L7.08532 2.69685L7.35938 2.52425L7.63335 2.69685L7.52867 2.41755L7.80274 2.24494H7.46397L7.35938 1.96572L7.2547 2.24494H6.91603ZM8.82308 2.24494L9.09714 2.41755L8.99246 2.69685L9.26643 2.52425L9.5405 2.69685L9.43582 2.41755L9.70979 2.24494H9.37111L9.26643 1.96572L9.16175 2.24494H8.82308ZM10.7302 2.24494L11.0042 2.41755L10.8995 2.69685L11.1736 2.52425L11.4475 2.69685L11.3429 2.41755L11.6169 2.24494H11.2783L11.1736 1.96572L11.0689 2.24494H10.7302ZM2.1717 2.95588L2.44567 3.12848L2.34109 3.4077L2.61506 3.2351L2.88912 3.4077L2.78444 3.1284L3.05841 2.95588H2.71974L2.61506 2.67657L2.51038 2.95588H2.1717ZM4.07885 2.95588L4.35281 3.12848L4.24814 3.4077L4.5222 3.2351L4.79617 3.4077L4.69149 3.1284L4.96555 2.95588H4.62688L4.5222 2.67657L4.41752 2.95588H4.07885ZM5.98599 2.95588L6.25996 3.12848L6.15528 3.4077L6.42934 3.2351L6.70331 3.4077L6.59863 3.1284L6.8727 2.95588H6.53393L6.42934 2.67657L6.32466 2.95588H5.98599ZM7.89304 2.95588L8.1671 3.12848L8.06242 3.4077L8.33639 3.2351L8.61046 3.4077L8.50578 3.1284L8.77975 2.95588H8.44107L8.33639 2.67657L8.23171 2.95588H7.89304ZM9.80018 2.95588L10.0742 3.12848L9.96947 3.4077L10.2435 3.2351L10.5175 3.4077L10.4128 3.1284L10.6869 2.95588H10.3482L10.2435 2.67657L10.1389 2.95588H9.80018ZM1.22355 3.65851L1.49761 3.83103L1.39293 4.11033L1.6669 3.93773L1.94096 4.11033L1.83629 3.83103L2.11025 3.65851H1.77158L1.6669 3.3792L1.56222 3.65851H1.22355ZM3.13069 3.65851L3.40466 3.83103L3.29998 4.11033L3.57404 3.93773L3.84801 4.11033L3.74343 3.83103L4.0174 3.65851H3.67872L3.57404 3.3792L3.46936 3.65851H3.13069ZM5.03783 3.65851L5.3118 3.83103L5.20712 4.11033L5.48119 3.93773L5.75516 4.11033L5.65048 3.83103L5.92454 3.65851H5.58587L5.48119 3.3792L5.37651 3.65851H5.03783ZM6.94488 3.65851L7.21895 3.83103L7.11427 4.11033L7.38824 3.93773L7.6623 4.11033L7.55762 3.83103L7.83169 3.65851H7.49292L7.38824 3.3792L7.28365 3.65851H6.94488ZM8.85203 3.65851L9.126 3.83103L9.02141 4.11033L9.29538 3.93773L9.56945 4.11033L9.46477 3.83103L9.73874 3.65851H9.40006L9.29538 3.3792L9.1907 3.65851H8.85203ZM10.7592 3.65851L11.0331 3.83103L10.9285 4.11033L11.2025 3.93773L11.4765 4.11033L11.3718 3.83103L11.6459 3.65851H11.3072L11.2025 3.3792L11.0978 3.65851H10.7592ZM1.24147 5.05312L1.51544 5.22572L1.41076 5.50503L1.68483 5.33243L1.9588 5.50503L1.85412 5.22572L2.12818 5.05312H1.78951L1.68483 4.7739L1.58015 5.05312H1.24147ZM3.14852 5.05312L3.42258 5.22572L3.3179 5.50503L3.59187 5.33243L3.86594 5.50503L3.76126 5.22572L4.03523 5.05312H3.69655L3.59187 4.7739L3.48719 5.05312H3.14852ZM5.05566 5.05312L5.32963 5.22572L5.22505 5.50503L5.49902 5.33243L5.77308 5.50503L5.6684 5.22572L5.94237 5.05312H5.6037L5.49902 4.7739L5.39434 5.05312H5.05566ZM6.96281 5.05312L7.23678 5.22572L7.1321 5.50503L7.40616 5.33243L7.68013 5.50503L7.57555 5.22572L7.84952 5.05312H7.51084L7.40616 4.7739L7.30148 5.05312H6.96281ZM8.86986 5.05312L9.14392 5.22572L9.03924 5.50503L9.31321 5.33243L9.58728 5.50503L9.4826 5.22572L9.75666 5.05312H9.41789L9.31321 4.7739L9.20863 5.05312H8.86986ZM10.777 5.05312L11.051 5.22572L10.9464 5.50503L11.2204 5.33243L11.4944 5.50503L11.3897 5.22572L11.6637 5.05312H11.325L11.2204 4.7739L11.1157 5.05312H10.777ZM1.21818 6.46419L1.49215 6.6368L1.38747 6.9161L1.66153 6.7435L1.9355 6.9161L1.83082 6.6368L2.10489 6.46419H1.76612L1.66153 6.18497L1.55685 6.46419H1.21818ZM3.12523 6.46419L3.39929 6.6368L3.29461 6.9161L3.56858 6.7435L3.84265 6.9161L3.73797 6.6368L4.01193 6.46419H3.67326L3.56858 6.18497L3.4639 6.46419H3.12523ZM5.03237 6.46419L5.30634 6.6368L5.20176 6.9161L5.47572 6.7435L5.74979 6.9161L5.64511 6.6368L5.91908 6.46419H5.5804L5.47572 6.18497L5.37104 6.46419H5.03237ZM6.93951 6.46419L7.21348 6.6368L7.1088 6.9161L7.38287 6.7435L7.65684 6.9161L7.55225 6.6368L7.82622 6.46419H7.48755L7.38287 6.18497L7.27819 6.46419H6.93951ZM8.84656 6.46419L9.12063 6.6368L9.01595 6.9161L9.28992 6.7435L9.56398 6.9161L9.4593 6.6368L9.73337 6.46419H9.3946L9.28992 6.18497L9.18533 6.46419H8.84656ZM10.7537 6.46419L11.0277 6.6368L10.9231 6.9161L11.1971 6.7435L11.4711 6.9161L11.3664 6.6368L11.6404 6.46419H11.3017L11.1971 6.18497L11.0924 6.46419H10.7537ZM2.17736 4.34883L2.45133 4.52144L2.34674 4.80066L2.62071 4.62806L2.89478 4.80066L2.7901 4.52144L3.06407 4.34883H2.72539L2.62071 4.06953L2.51603 4.34883H2.17736ZM4.0845 4.34883L4.35847 4.52144L4.25379 4.80066L4.52786 4.62806L4.80183 4.80066L4.69724 4.52144L4.97121 4.34883H4.63254L4.52786 4.06953L4.42318 4.34883H4.0845ZM5.99165 4.34883L6.26561 4.52144L6.16093 4.80066L6.435 4.62806L6.70897 4.80066L6.60429 4.52144L6.87836 4.34883H6.53968L6.435 4.06953L6.33032 4.34883H5.99165ZM7.89869 4.34883L8.17276 4.52144L8.06808 4.80066L8.34205 4.62806L8.61611 4.80066L8.51143 4.52144L8.7854 4.34883H8.44673L8.34205 4.06953L8.23737 4.34883H7.89869ZM9.80584 4.34883L10.0798 4.52144L9.97513 4.80066L10.2492 4.62806L10.5232 4.80066L10.4186 4.52144L10.6925 4.34883H10.3539L10.2492 4.06953L10.1445 4.34883H9.80584ZM2.1717 5.75766L2.44577 5.93026L2.34109 6.20957L2.61506 6.03697L2.88912 6.20957L2.78444 5.93026L3.05841 5.75766H2.71974L2.61506 5.47844L2.51038 5.75766H2.1717ZM4.07885 5.75766L4.35281 5.93026L4.24814 6.20957L4.5222 6.03697L4.79627 6.20957L4.69159 5.93026L4.96555 5.75766H4.62688L4.5222 5.47844L4.41752 5.75766H4.07885ZM5.98599 5.75766L6.25996 5.93026L6.15528 6.20957L6.42934 6.03697L6.70331 6.20957L6.59863 5.93026L6.8727 5.75766H6.53402L6.42934 5.47844L6.32466 5.75766H5.98599ZM7.89304 5.75766L8.1671 5.93026L8.06242 6.20957L8.33639 6.03697L8.61046 6.20957L8.50578 5.93026L8.77975 5.75766H8.44107L8.33639 5.47844L8.23171 5.75766H7.89304ZM9.80018 5.75766L10.0742 5.93026L9.96947 6.20957L10.2435 6.03697L10.5175 6.20957L10.4129 5.93026L10.6869 5.75766H10.3482L10.2435 5.47844L10.1389 5.75766H9.80018Z" fill="white"/>
</g>
<defs>
<clipPath id="clip0_7_272">
<rect width="28.7581" height="13.2132" fill="white" transform="translate(0.654053 0.208252)"/>
</clipPath>
</defs>
</svg>
