<svg width="29" height="14" viewBox="0 0 29 14" fill="none" xmlns="http://www.w3.org/2000/svg">
<path d="M0 0H28.7581V13.1214H0V0Z" fill="white"/>
<path d="M0 0H28.7581V1.00936H0V0ZM0 2.01871H28.7581V3.02807H0V2.01871ZM0 4.03734H28.7581V5.04669H0V4.03734ZM0 6.05605H28.7581V7.06541H0V6.05605ZM0 8.07468H28.7581V9.08403H0V8.07468ZM0 10.0934H28.7581V11.1027H0V10.0934ZM0 12.112H28.7581V13.1214H0V12.112Z" fill="#B22234"/>
<path d="M0 0H11.5033V7.06532H0V0Z" fill="#3C3B6E"/>
<path d="M0.540726 0.573656L0.814791 0.746259L0.710111 1.02556L0.98408 0.852961L1.25815 1.02556L1.15347 0.746259L1.42744 0.573656H1.08876L0.98408 0.294434L0.879401 0.573656H0.540726ZM2.44787 0.573656L2.72184 0.746259L2.61716 1.02556L2.89122 0.852961L3.16529 1.02556L3.06061 0.746259L3.33458 0.573656H2.9959L2.89122 0.294434L2.78655 0.573656H2.44787ZM4.35501 0.573656L4.62898 0.746259L4.5243 1.02556L4.79837 0.852961L5.07234 1.02556L4.96766 0.746259L5.24172 0.573656H4.90305L4.79837 0.294434L4.69369 0.573656H4.35501ZM6.26216 0.573656L6.53613 0.746259L6.43145 1.02556L6.70551 0.852961L6.97948 1.02556L6.8748 0.746259L7.14887 0.573656H6.8101L6.70551 0.294434L6.60083 0.573656H6.26216ZM8.16921 0.573656L8.44327 0.746259L8.33859 1.02556L8.61256 0.852961L8.88663 1.02556L8.78195 0.746259L9.05592 0.573656H8.71724L8.61256 0.294434L8.50788 0.573656H8.16921ZM10.0764 0.573656L10.3503 0.746259L10.2456 1.02556L10.5197 0.852961L10.7937 1.02556L10.689 0.746259L10.9631 0.573656H10.6244L10.5197 0.294434L10.415 0.573656H10.0764ZM1.49425 1.28227L1.76831 1.45487L1.66364 1.73409L1.9377 1.56149L2.21167 1.73409L2.10699 1.45487L2.38106 1.28227H2.04228L1.9377 1.00296L1.83302 1.28227H1.49425ZM3.40139 1.28227L3.67546 1.45487L3.57078 1.73409L3.84475 1.56149L4.11881 1.73409L4.01413 1.45487L4.2881 1.28227H3.94943L3.84475 1.00296L3.74007 1.28227H3.40139ZM5.30854 1.28227L5.5826 1.45487L5.47792 1.73409L5.75189 1.56149L6.02596 1.73409L5.92128 1.45487L6.19525 1.28227H5.85657L5.75189 1.00296L5.64721 1.28227H5.30854ZM7.21568 1.28227L7.48965 1.45487L7.38497 1.73409L7.65904 1.56149L7.93301 1.73409L7.82833 1.45487L8.10239 1.28227H7.76372L7.65904 1.00296L7.55436 1.28227H7.21568ZM9.12273 1.28227L9.3968 1.45487L9.29212 1.73409L9.56609 1.56149L9.84015 1.73409L9.73547 1.45487L10.0094 1.28227H9.67076L9.56609 1.00296L9.4615 1.28227H9.12273ZM0.540726 1.99079L0.814791 2.1634L0.710111 2.4427L0.98408 2.2701L1.25815 2.4427L1.15347 2.1634L1.42744 1.99079H1.08876L0.98408 1.71157L0.879401 1.99079H0.540726ZM2.44787 1.99079L2.72184 2.1634L2.61716 2.4427L2.89122 2.2701L3.16529 2.4427L3.06061 2.1634L3.33458 1.99079H2.9959L2.89122 1.71157L2.78655 1.99079H2.44787ZM4.35501 1.99079L4.62898 2.1634L4.5243 2.4427L4.79837 2.2701L5.07234 2.4427L4.96766 2.1634L5.24172 1.99079H4.90305L4.79837 1.71157L4.69369 1.99079H4.35501ZM6.26216 1.99079L6.53613 2.1634L6.43145 2.4427L6.70551 2.2701L6.97948 2.4427L6.8748 2.1634L7.14887 1.99079H6.8101L6.70551 1.71157L6.60083 1.99079H6.26216ZM8.16921 1.99079L8.44327 2.1634L8.33859 2.4427L8.61256 2.2701L8.88663 2.4427L8.78195 2.1634L9.05592 1.99079H8.71724L8.61256 1.71157L8.50788 1.99079H8.16921ZM10.0764 1.99079L10.3503 2.1634L10.2456 2.4427L10.5197 2.2701L10.7937 2.4427L10.689 2.1634L10.9631 1.99079H10.6244L10.5197 1.71157L10.415 1.99079H10.0764ZM1.51783 2.70173L1.7918 2.87433L1.68722 3.15355L1.96119 2.98095L2.23525 3.15355L2.13057 2.87425L2.40454 2.70173H2.06587L1.96119 2.42242L1.85651 2.70173H1.51783ZM3.42498 2.70173L3.69895 2.87433L3.59427 3.15355L3.86833 2.98095L4.1423 3.15355L4.03762 2.87425L4.31169 2.70173H3.97301L3.86833 2.42242L3.76365 2.70173H3.42498ZM5.33212 2.70173L5.60609 2.87433L5.50141 3.15355L5.77547 2.98095L6.04944 3.15355L5.94476 2.87425L6.21883 2.70173H5.88006L5.77547 2.42242L5.67079 2.70173H5.33212ZM7.23917 2.70173L7.51323 2.87433L7.40855 3.15355L7.68252 2.98095L7.95659 3.15355L7.85191 2.87425L8.12588 2.70173H7.7872L7.68252 2.42242L7.57784 2.70173H7.23917ZM9.14631 2.70173L9.42028 2.87433L9.3156 3.15355L9.58967 2.98095L9.86364 3.15355L9.75896 2.87425L10.033 2.70173H9.69435L9.58967 2.42242L9.48499 2.70173H9.14631ZM0.569676 3.40436L0.843741 3.57688L0.739061 3.85618L1.01303 3.68358L1.2871 3.85618L1.18242 3.57688L1.45639 3.40436H1.11771L1.01303 3.12505L0.908351 3.40436H0.569676ZM2.47682 3.40436L2.75079 3.57688L2.64611 3.85618L2.92017 3.68358L3.19414 3.85618L3.08956 3.57688L3.36353 3.40436H3.02485L2.92017 3.12505L2.81549 3.40436H2.47682ZM4.38396 3.40436L4.65793 3.57688L4.55325 3.85618L4.82732 3.68358L5.10129 3.85618L4.99661 3.57688L5.27067 3.40436H4.932L4.82732 3.12505L4.72264 3.40436H4.38396ZM6.29101 3.40436L6.56508 3.57688L6.4604 3.85618L6.73437 3.68358L7.00843 3.85618L6.90375 3.57688L7.17782 3.40436H6.83905L6.73437 3.12505L6.62978 3.40436H6.29101ZM8.19816 3.40436L8.47213 3.57688L8.36754 3.85618L8.64151 3.68358L8.91558 3.85618L8.8109 3.57688L9.08487 3.40436H8.74619L8.64151 3.12505L8.53683 3.40436H8.19816ZM10.1053 3.40436L10.3793 3.57688L10.2746 3.85618L10.5487 3.68358L10.8226 3.85618L10.7179 3.57688L10.992 3.40436H10.6533L10.5487 3.12505L10.444 3.40436H10.1053ZM0.587601 4.79897L0.861571 4.97157L0.756891 5.25088L1.03096 5.07828L1.30493 5.25088L1.20025 4.97157L1.47431 4.79897H1.13564L1.03096 4.51975L0.926277 4.79897H0.587601ZM2.49465 4.79897L2.76871 4.97157L2.66404 5.25088L2.938 5.07828L3.21207 5.25088L3.10739 4.97157L3.38136 4.79897H3.04268L2.938 4.51975L2.83332 4.79897H2.49465ZM4.40179 4.79897L4.67576 4.97157L4.57118 5.25088L4.84515 5.07828L5.11921 5.25088L5.01453 4.97157L5.2885 4.79897H4.94983L4.84515 4.51975L4.74047 4.79897H4.40179ZM6.30894 4.79897L6.58291 4.97157L6.47823 5.25088L6.75229 5.07828L7.02626 5.25088L6.92168 4.97157L7.19565 4.79897H6.85697L6.75229 4.51975L6.64761 4.79897H6.30894ZM8.21599 4.79897L8.49005 4.97157L8.38537 5.25088L8.65934 5.07828L8.93341 5.25088L8.82873 4.97157L9.10279 4.79897H8.76402L8.65934 4.51975L8.55476 4.79897H8.21599ZM10.1231 4.79897L10.3971 4.97157L10.2925 5.25088L10.5665 5.07828L10.8406 5.25088L10.7359 4.97157L11.0098 4.79897H10.6712L10.5665 4.51975L10.4618 4.79897H10.1231ZM0.564307 6.21004L0.838277 6.38264L0.733597 6.66195L1.00766 6.48935L1.28163 6.66195L1.17695 6.38264L1.45102 6.21004H1.11225L1.00766 5.93082L0.902982 6.21004H0.564307ZM2.47136 6.21004L2.74542 6.38264L2.64074 6.66195L2.91471 6.48935L3.18878 6.66195L3.0841 6.38264L3.35807 6.21004H3.01939L2.91471 5.93082L2.81003 6.21004H2.47136ZM4.3785 6.21004L4.65247 6.38264L4.54789 6.66195L4.82185 6.48935L5.09592 6.66195L4.99124 6.38264L5.26521 6.21004H4.92653L4.82185 5.93082L4.71718 6.21004H4.3785ZM6.28564 6.21004L6.55961 6.38264L6.45493 6.66195L6.729 6.48935L7.00297 6.66195L6.89838 6.38264L7.17235 6.21004H6.83368L6.729 5.93082L6.62432 6.21004H6.28564ZM8.19269 6.21004L8.46676 6.38264L8.36208 6.66195L8.63605 6.48935L8.91011 6.66195L8.80543 6.38264L9.0795 6.21004H8.74073L8.63605 5.93082L8.53146 6.21004H8.19269ZM10.0998 6.21004L10.3738 6.38264L10.2692 6.66195L10.5432 6.48935L10.8173 6.66195L10.7126 6.38264L10.9865 6.21004H10.6479L10.5432 5.93082L10.4385 6.21004H10.0998ZM1.52349 4.09468L1.79746 4.26729L1.69287 4.54651L1.96684 4.37391L2.24091 4.54651L2.13623 4.26729L2.4102 4.09468H2.07152L1.96684 3.81538L1.86216 4.09468H1.52349ZM3.43063 4.09468L3.7046 4.26729L3.59992 4.54651L3.87399 4.37391L4.14796 4.54651L4.04337 4.26729L4.31734 4.09468H3.97867L3.87399 3.81538L3.76931 4.09468H3.43063ZM5.33778 4.09468L5.61174 4.26729L5.50707 4.54651L5.78113 4.37391L6.0551 4.54651L5.95042 4.26729L6.22449 4.09468H5.88581L5.78113 3.81538L5.67645 4.09468H5.33778ZM7.24482 4.09468L7.51889 4.26729L7.41421 4.54651L7.68818 4.37391L7.96224 4.54651L7.85756 4.26729L8.13153 4.09468H7.79286L7.68818 3.81538L7.5835 4.09468H7.24482ZM9.15197 4.09468L9.42594 4.26729L9.32126 4.54651L9.59532 4.37391L9.86929 4.54651L9.76471 4.26729L10.0387 4.09468H9.7L9.59532 3.81538L9.49064 4.09468H9.15197ZM1.51783 5.50351L1.7919 5.67611L1.68722 5.95542L1.96119 5.78281L2.23525 5.95542L2.13057 5.67611L2.40454 5.50351H2.06587L1.96119 5.22429L1.85651 5.50351H1.51783ZM3.42498 5.50351L3.69895 5.67611L3.59427 5.95542L3.86833 5.78281L4.1424 5.95542L4.03772 5.67611L4.31169 5.50351H3.97301L3.86833 5.22429L3.76365 5.50351H3.42498ZM5.33212 5.50351L5.60609 5.67611L5.50141 5.95542L5.77547 5.78281L6.04944 5.95542L5.94476 5.67611L6.21883 5.50351H5.88015L5.77547 5.22429L5.67079 5.50351H5.33212ZM7.23917 5.50351L7.51323 5.67611L7.40855 5.95542L7.68252 5.78281L7.95659 5.95542L7.85191 5.67611L8.12588 5.50351H7.7872L7.68252 5.22429L7.57784 5.50351H7.23917ZM9.14631 5.50351L9.42028 5.67611L9.3156 5.95542L9.58967 5.78281L9.86364 5.95542L9.75905 5.67611L10.033 5.50351H9.69435L9.58967 5.22429L9.48499 5.50351H9.14631Z" fill="white"/>
</svg>
