<svg width="17" height="17" viewBox="0 0 17 17" fill="none" xmlns="http://www.w3.org/2000/svg">
<path fill-rule="evenodd" clip-rule="evenodd" d="M11.431 10.723L16.604 15.896L15.897 16.604L10.724 11.431C9.587 12.406 8.112 13 6.5 13C2.916 13 1.10543e-06 10.084 1.10543e-06 6.5C-0.000997787 4.764 0.675002 3.131 1.902 1.903C3.131 0.676 4.764 0 6.5 0C10.084 0 13 2.916 13 6.5C13 8.112 12.406 9.586 11.431 10.723ZM1 6.5C1 9.533 3.468 12 6.5 12C9.532 12 12 9.532 12 6.5C12 3.467 9.532 1 6.5 1C5.03 1 3.648 1.572 2.61 2.611C1.571 3.649 0.999002 5.03 1 6.5Z" fill="#EC3237"/>
</svg>
