<svg width="15" height="15" viewBox="0 0 15 15" fill="none" xmlns="http://www.w3.org/2000/svg">
<path d="M3.375 11.625L9 8.99999L11.625 3.375L6 6L3.375 11.625ZM7.5 8.24999C7.2875 8.24999 7.1095 8.17799 6.966 8.03399C6.8225 7.89 6.7505 7.712 6.75 7.5C6.7495 7.288 6.8215 7.11 6.966 6.966C7.1105 6.822 7.2885 6.75 7.5 6.75C7.7115 6.75 7.88975 6.822 8.03475 6.966C8.17975 7.11 8.2515 7.288 8.25 7.5C8.2485 7.712 8.1765 7.89025 8.034 8.03475C7.8915 8.17924 7.7135 8.25099 7.5 8.24999ZM7.5 15C6.4625 15 5.4875 14.803 4.575 14.409C3.6625 14.015 2.86875 13.4807 2.19375 12.8062C1.51875 12.1317 0.9845 11.338 0.591001 10.425C0.197501 9.51199 0.000500949 8.53699 9.49366e-07 7.5C-0.00049905 6.463 0.196501 5.488 0.591001 4.575C0.9855 3.662 1.51975 2.86825 2.19375 2.19375C2.86775 1.51925 3.6615 0.984999 4.575 0.591C5.4885 0.197 6.4635 0 7.5 0C8.5365 0 9.51149 0.197 10.425 0.591C11.3385 0.984999 12.1322 1.51925 12.8062 2.19375C13.4802 2.86825 14.0147 3.662 14.4097 4.575C14.8047 5.488 15.0015 6.463 15 7.5C14.9985 8.53699 14.8015 9.51199 14.409 10.425C14.0165 11.338 13.4822 12.1317 12.8062 12.8062C12.1302 13.4807 11.3365 14.0152 10.425 14.4097C9.51349 14.8042 8.5385 15.001 7.5 15Z" fill="#EC3237"/>
</svg>
