<svg width="15" height="13" viewBox="0 0 15 13" fill="none" xmlns="http://www.w3.org/2000/svg">
<path d="M8.57143 0.0714111C6.86647 0.0714111 5.23133 0.748705 4.02574 1.9543C2.82015 3.15989 2.14286 4.79502 2.14286 6.49998H0L2.77857 9.27855L2.82857 9.37855L5.71429 6.49998H3.57143C3.57143 3.7357 5.80714 1.49998 8.57143 1.49998C11.3357 1.49998 13.5714 3.7357 13.5714 6.49998C13.5714 9.26427 11.3357 11.5 8.57143 11.5C7.19286 11.5 5.94286 10.9357 5.04286 10.0286L4.02857 11.0428C4.62377 11.6415 5.33166 12.1164 6.11138 12.4401C6.8911 12.7638 7.7272 12.9298 8.57143 12.9286C10.2764 12.9286 11.9115 12.2513 13.1171 11.0457C14.3227 9.84008 15 8.20495 15 6.49998C15 4.79502 14.3227 3.15989 13.1171 1.9543C11.9115 0.748705 10.2764 0.0714112 8.57143 0.0714111ZM7.85714 3.64284V7.21427L10.8929 9.01427L11.4429 8.09998L8.92857 6.60713V3.64284H7.85714Z" fill="#EC3237"/>
</svg>
