<svg width="12" height="10" viewBox="0 0 12 10" fill="none" xmlns="http://www.w3.org/2000/svg">
<path d="M11.5605 2.13786L4.72261 9.33638C4.66305 9.3993 4.59229 9.44922 4.51436 9.48328C4.43644 9.51734 4.3529 9.53487 4.26853 9.53487C4.18416 9.53487 4.10061 9.51734 4.02269 9.48328C3.94477 9.44922 3.874 9.3993 3.81445 9.33638L0.822852 6.18703C0.763221 6.12425 0.71592 6.04973 0.683648 5.96771C0.651376 5.88569 0.634766 5.79778 0.634766 5.709C0.634766 5.62022 0.651376 5.53231 0.683648 5.45029C0.71592 5.36827 0.763221 5.29375 0.822852 5.23097C0.882483 5.1682 0.953275 5.1184 1.03119 5.08443C1.1091 5.05045 1.1926 5.03297 1.27693 5.03297C1.36126 5.03297 1.44477 5.05045 1.52268 5.08443C1.60059 5.1184 1.67138 5.1682 1.73102 5.23097L4.26906 7.90286L10.6534 1.18293C10.7739 1.05615 10.9372 0.984924 11.1075 0.984924C11.2778 0.984924 11.4412 1.05615 11.5616 1.18293C11.682 1.30971 11.7497 1.48166 11.7497 1.66096C11.7497 1.84025 11.682 2.0122 11.5616 2.13898L11.5605 2.13786Z" fill="white"/>
</svg>
